<svg width="84" height="77" viewBox="0 0 84 77" fill="none" xmlns="http://www.w3.org/2000/svg">
<path d="M4.04545 62V15.4545H13.8864V53.8864H33.8409V62H4.04545ZM65.608 28.8409C65.4261 27.0076 64.6458 25.5833 63.267 24.5682C61.8883 23.553 60.017 23.0455 57.6534 23.0455C56.0473 23.0455 54.6913 23.2727 53.5852 23.7273C52.4792 24.1667 51.6307 24.7803 51.0398 25.5682C50.464 26.3561 50.1761 27.25 50.1761 28.25C50.1458 29.0833 50.3201 29.8106 50.6989 30.4318C51.0928 31.053 51.6307 31.5909 52.3125 32.0455C52.9943 32.4848 53.7822 32.8712 54.6761 33.2045C55.5701 33.5227 56.5246 33.7955 57.5398 34.0227L61.7216 35.0227C63.7519 35.4773 65.6155 36.0833 67.3125 36.8409C69.0095 37.5985 70.4792 38.5303 71.7216 39.6364C72.964 40.7424 73.9261 42.0455 74.608 43.5455C75.3049 45.0455 75.661 46.7652 75.6761 48.7045C75.661 51.553 74.9337 54.0227 73.4943 56.1136C72.0701 58.1894 70.0095 59.803 67.3125 60.9545C64.6307 62.0909 61.3958 62.6591 57.608 62.6591C53.8504 62.6591 50.5777 62.0833 47.7898 60.9318C45.017 59.7803 42.8504 58.0758 41.2898 55.8182C39.7443 53.5455 38.9337 50.7348 38.858 47.3864H48.3807C48.4867 48.947 48.9337 50.25 49.7216 51.2955C50.5246 52.3258 51.5928 53.1061 52.9261 53.6364C54.2746 54.1515 55.7973 54.4091 57.4943 54.4091C59.161 54.4091 60.608 54.1667 61.8352 53.6818C63.0777 53.197 64.0398 52.5227 64.7216 51.6591C65.4034 50.7955 65.7443 49.803 65.7443 48.6818C65.7443 47.6364 65.4337 46.7576 64.8125 46.0455C64.2064 45.3333 63.3125 44.7273 62.1307 44.2273C60.964 43.7273 59.5322 43.2727 57.8352 42.8636L52.767 41.5909C48.8428 40.6364 45.7443 39.1439 43.4716 37.1136C41.1989 35.0833 40.0701 32.3485 40.0852 28.9091C40.0701 26.0909 40.8201 23.6288 42.3352 21.5227C43.8655 19.4167 45.964 17.7727 48.6307 16.5909C51.2973 15.4091 54.3277 14.8182 57.7216 14.8182C61.1761 14.8182 64.1913 15.4091 66.767 16.5909C69.358 17.7727 71.3731 19.4167 72.8125 21.5227C74.2519 23.6288 74.9943 26.0682 75.0398 28.8409H65.608Z" fill="#6F42C1"/>
<rect x="79" y="57" width="5" height="5" fill="#6F42C1"/>
</svg>
